<svg height="497pt" viewBox="-16 0 497 497.68647" width="497pt" xmlns="http://www.w3.org/2000/svg" xmlns:xlink="http://www.w3.org/1999/xlink"><linearGradient id="a"><stop offset="0" stop-color="#00efd1"/><stop offset="1" stop-color="#00acea"/></linearGradient><linearGradient id="b" gradientUnits="userSpaceOnUse" x1="82.343439" x2="82.343439" xlink:href="#a" y1="10.686468" y2="501.485468"/><linearGradient id="c" gradientUnits="userSpaceOnUse" x1="327.343439" x2="327.343439" xlink:href="#a" y1="10.686468" y2="501.485468"/><linearGradient id="d" gradientUnits="userSpaceOnUse" x1="204.843439" x2="204.843439" xlink:href="#a" y1="10.686468" y2="501.485468"/><linearGradient id="e" gradientUnits="userSpaceOnUse" x1="232.343439" x2="232.343439" xlink:href="#a" y1="10.686468" y2="501.485468"/><linearGradient id="f" gradientUnits="userSpaceOnUse" x1="361.494439" x2="361.494439" xlink:href="#a" y1="10.686468" y2="501.485468"/><path d="m123.34375 345.6875c0-4.417969-3.582031-8-8-8h-66c-4.417969 0-8 3.582031-8 8v45c0 4.417969 3.582031 8 8 8h66c4.417969 0 8-3.582031 8-8zm-16 37h-50v-29h50zm0 0" fill="url(#b)"/><path d="m368.34375 345.6875c0-4.417969-3.582031-8-8-8h-66c-4.417969 0-8 3.582031-8 8v45c0 4.417969 3.582031 8 8 8h66c4.417969 0 8-3.582031 8-8zm-16 37h-50v-29h50zm0 0" fill="url(#c)"/><path d="m255.34375 354.6875c0-4.417969-3.582031-8-8-8h-85c-4.417969 0-8 3.582031-8 8v27c0 4.417969 3.582031 8 8 8h85c4.417969 0 8-3.582031 8-8zm-16 19h-69v-11h69zm0 0" fill="url(#d)"/><path d="m459.949219 47.480469-94.960938-46.664063c-2.214843-1.089844-4.8125-1.089844-7.027343 0l-95.078126 46.53125c-2.753906 1.335938-4.515624 4.121094-4.539062 7.1875v86.304688c0 13.1875 4.5 27.847656 11.660156 40.847656h-174.851562c-14.917969-.058594-28.296875 9.160156-33.558594 23.117188l-31.066406 83.722656-12.867188 11.980468c-11.027344 9.417969-17.359375 23.203126-17.316406 37.707032v123.371094c0 19.734374 15.898438 36.101562 35.628906 36.101562h23.171875c19.90625-.117188 36.027344-16.195312 36.199219-36.101562v-18.898438h219v18.898438c0 19.738281 15.953125 36.101562 35.691406 36.101562h23.164063c19.894531-.117188 36-16.203125 36.144531-36.101562v-126.554688c-.089844-13.597656-5.707031-26.574219-15.558594-35.945312l-9.101562-9.632813-14.980469-40.3125 58.683594-40.09375c20.558593-14.015625 35.957031-43.339844 35.957031-68.207031v-86.179688c.03125-3.039062-1.671875-5.828125-4.394531-7.179687zm-383.355469 162.742187c2.9375-7.664062 10.355469-12.671875 18.558594-12.535156h186.171875c4.058593 4 8.5 8.378906 13.21875 11.59375l57.800781 39.15625 13.527344 36.25h-317.007813zm2.75 251.363282c-.171875 11.070312-9.132812 19.984374-20.199219 20.101562h-23.171875c-10.914062 0-19.628906-9.191406-19.628906-20.101562v-24.398438c5.863281 3.714844 12.691406 5.628906 19.632812 5.5h43.367188zm308.027344 14.152343c-3.757813 3.769531-8.851563 5.90625-14.171875 5.949219h-23.164063c-10.914062 0-19.691406-9.191406-19.691406-20.101562v-18.898438h42.855469c7.101562.132812 14.09375-1.773438 20.144531-5.496094v24.394532c-.050781 5.320312-2.199219 10.402343-5.972656 14.148437zm5.972656-75.300781v6.949219c0 10.914062-9.230469 19.300781-20.144531 19.300781h-337.222657c-5.179687.097656-10.179687-1.890625-13.875-5.523438-3.695312-3.628906-5.769531-8.597656-5.757812-13.777343v-69.171875c-.039062-9.886719 4.285156-19.285156 11.8125-25.6875.09375-.082032.144531-.300782.234375-.386719l12.121094-11.453125h332.949219l8.621093 9.359375c.113281.121094.40625.308594.527344.421875 6.777344 6.382812 10.652344 15.253906 10.734375 24.5625zm55-259.601562c0 19.390624-12.960938 44.058593-28.996094 54.988281l-57.894531 39.511719-57.988281-39.515626c-16.03125-10.925781-29.121094-35.589843-29.121094-54.980468v-81.316406l87-42.613282 87 42.734375zm0 0" fill="url(#e)"/><path d="m330.980469 120.347656c-2.007813-2.042968-4.957031-2.855468-7.726563-2.128906-2.773437.722656-4.945312 2.875-5.695312 5.640625-.753906 2.765625.03125 5.71875 2.054687 7.75l24.332031 24.636719c1.484376 1.53125 3.523438 2.410156 5.660157 2.441406h.019531c2.128906-.027344 4.164062-.894531 5.65625-2.414062l48.066406-48.101563c3.089844-3.128906 3.078125-8.167969-.03125-11.28125-3.105468-3.117187-8.144531-3.140625-11.28125-.058594l-42.382812 42.375zm0 0" fill="url(#f)"/></svg>