<svg height="512pt" viewBox="0 0 512.005 512" width="512pt" xmlns="http://www.w3.org/2000/svg" xmlns:xlink="http://www.w3.org/1999/xlink"><linearGradient id="a"><stop offset="0" stop-color="#662d91"/><stop offset=".437" stop-color="#3873b3"/><stop offset="1" stop-color="#00c9dd"/></linearGradient><linearGradient id="b" gradientTransform="matrix(1.32488 0 0 -1.32488 0 502.292)" gradientUnits="userSpaceOnUse" x1="27.37" x2="364.516" xlink:href="#a" y1="351.747" y2="14.601"/><linearGradient id="c" gradientTransform="matrix(1.32488 0 0 -1.32488 0 502.292)" gradientUnits="userSpaceOnUse" x1="27.383" x2="364.529" xlink:href="#a" y1="351.759" y2="14.614"/><linearGradient id="d" gradientTransform="matrix(1.32488 0 0 -1.32488 0 502.292)" gradientUnits="userSpaceOnUse" x1="27.39" x2="364.535" xlink:href="#a" y1="351.766" y2="14.62"/><path d="M4.508 235.707l51.086 27.305 1.656 5.222-25.762 53.121a8.527 8.527 0 00.711 8.653l17.004 24.015a8.54 8.54 0 008.262 3.497l56.883-8.754 4.097 3.062 9.473 58.48a8.54 8.54 0 005.727 6.743l27.503 9.172a8.53 8.53 0 008.762-2.09l41.02-41.488h4.898l38.988 39.43-9.386 19.534a8.539 8.539 0 00.699 8.594l6.828 9.742a8.535 8.535 0 008.293 3.543l34.8-5.41 8.977 6.766 5.82 36.242a8.527 8.527 0 005.7 6.734l11.094 3.735a8.584 8.584 0 008.746-2.114l25.105-25.652h10.89l25.122 25.652a8.53 8.53 0 008.812 2.114l11.094-3.727a8.527 8.527 0 005.7-6.734l5.82-36.258 8.968-6.758 34.801 5.418a8.534 8.534 0 008.301-3.539l6.828-9.754a8.529 8.529 0 00.7-8.594l-15.88-32.949 3.536-11.262 31.351-16.933a8.522 8.522 0 004.469-7.5v-12.067a8.53 8.53 0 00-4.477-7.5l-31.363-16.921-3.531-11.262 15.847-32.957a8.547 8.547 0 00-.699-8.594l-6.828-9.746a8.532 8.532 0 00-8.293-3.54l-34.8 5.411-8.977-6.77-5.496-34.218a8.474 8.474 0 003.285-6.621v-29.696a8.537 8.537 0 00-4.504-7.527l-51.094-27.305-1.656-5.222 25.762-53.106a8.536 8.536 0 00-.711-8.652L377.46 72.66a8.53 8.53 0 00-8.258-3.5l-56.887 8.738-4.093-3.062-9.473-58.48a8.54 8.54 0 00-5.727-6.743L265.563.441a8.528 8.528 0 00-8.762 2.09L215.78 44.02h-4.898l-41.02-41.461a8.53 8.53 0 00-8.76-2.099l-27.504 9.144a8.546 8.546 0 00-5.727 6.743l-9.469 58.488-4.097 3.062-56.84-8.78a8.535 8.535 0 00-8.262 3.5L32.195 96.655a8.536 8.536 0 00-.707 8.653L57.25 158.41l-1.656 5.215L4.508 190.93A8.533 8.533 0 000 198.484v29.696a8.536 8.536 0 004.508 7.527zm411.363 44.875l14.61 11.012a8.58 8.58 0 006.445 1.61l33.105-5.118.906 1.305-15.136 31.46a8.521 8.521 0 00-.453 6.254l5.59 17.786a8.555 8.555 0 004.128 4.976l29.868 16.125v1.88L465.016 384a8.508 8.508 0 00-4.079 4.95l-5.59 17.78a8.59 8.59 0 00.45 6.258l15.148 31.496-.914 1.305-33.11-5.121a8.59 8.59 0 00-6.44 1.613l-14.61 10.996a8.547 8.547 0 00-3.285 5.473l-5.547 34.559-1.101.367-23.895-24.348a8.54 8.54 0 00-6.082-2.558h-18.059a8.55 8.55 0 00-6.093 2.558l-23.891 24.383-1.11-.375-5.546-34.543a8.547 8.547 0 00-3.285-5.473l-14.61-11.008a8.6 8.6 0 00-6.445-1.613l-33.11 5.121-.902-1.304 9.957-20.711 20.184-6.73a8.541 8.541 0 005.722-6.743l5.66-34.867c4.641 34.566 36.426 58.82 70.989 54.18 34.566-4.645 58.824-36.426 54.18-70.993a63.148 63.148 0 00-41.04-50.953l-19.148-39.472 1.656-5.215 36.317-19.43 5.195 31.508a8.553 8.553 0 003.29 5.492zm-95.02 86.348a46.169 46.169 0 013.016-16.39l45.336 6.987a8.457 8.457 0 008.262-3.5l17.008-24.02c20.406 15.208 24.617 44.079 9.406 64.485-15.207 20.406-44.078 24.617-64.484 9.41a46.103 46.103 0 01-18.543-36.972zM17.067 203.594l49.641-26.555a8.481 8.481 0 004.11-4.95l3.722-11.769c.66-2.082.5-4.336-.453-6.304l-25.043-51.618 11.039-15.597 55.16 8.531a8.527 8.527 0 006.418-1.602l9.719-7.28a8.524 8.524 0 003.32-5.47l9.2-56.789 17.57-5.863 39.78 40.242a8.51 8.51 0 006.066 2.559h12.036a8.51 8.51 0 006.066-2.559l39.781-40.242 17.57 5.863 9.2 56.79a8.535 8.535 0 003.316 5.468l9.723 7.281a8.522 8.522 0 006.414 1.602l55.16-8.531 11.043 15.597-25.047 51.63a8.477 8.477 0 00-.45 6.296l3.72 11.766a8.531 8.531 0 004.113 4.957l49.637 26.547v19.472l-49.637 26.559a8.465 8.465 0 00-4.113 4.95l-3.72 11.765a8.548 8.548 0 00.45 6.308l25.047 51.618-11.043 15.601-55.16-8.535a8.507 8.507 0 00-6.414 1.606l-9.723 7.277a8.535 8.535 0 00-3.316 5.469l-9.2 56.793-17.57 5.859-39.781-40.242a8.543 8.543 0 00-6.066-2.559h-11.993a8.543 8.543 0 00-6.066 2.559l-39.781 40.242-17.57-5.86-9.2-56.792a8.535 8.535 0 00-3.316-5.47l-9.723-7.276a8.524 8.524 0 00-6.414-1.606l-55.16 8.535-11.086-15.601 25.043-51.625a8.518 8.518 0 00.453-6.297l-3.71-11.77a8.543 8.543 0 00-4.114-4.957L17.066 223.07zm0 0" fill="url(#b)"/><path d="M213.332 290.133c42.418 0 76.8-34.387 76.8-76.801 0-42.418-34.382-76.8-76.8-76.8-42.414 0-76.8 34.382-76.8 76.8.05 42.395 34.405 76.754 76.8 76.8zm0-136.535c32.992 0 59.734 26.746 59.734 59.734s-26.742 59.734-59.734 59.734c-32.988 0-59.73-26.746-59.73-59.734.035-32.973 26.757-59.695 59.73-59.734zm0 0" fill="url(#c)"/><path d="M213.332 335.64c67.55 0 122.309-54.757 122.309-122.308 0-67.547-54.758-122.309-122.309-122.309-67.547 0-122.305 54.762-122.305 122.309.078 67.516 54.79 122.23 122.305 122.309zm0-227.55c58.125 0 105.242 47.117 105.242 105.242s-47.117 105.242-105.242 105.242c-58.121 0-105.242-47.117-105.242-105.242.062-58.098 47.144-105.18 105.242-105.242zm0 0" fill="url(#d)"/></svg>