<svg xmlns="http://www.w3.org/2000/svg" viewBox="0 0 480 480"><linearGradient id="a" gradientUnits="userSpaceOnUse" x1="-26.875" y1="555.755" x2="-26.875" y2="616.575" gradientTransform="matrix(8 0 0 -8 455 4941)"><stop offset="0" stop-color="#006df0"/><stop offset="1" stop-color="#00e7f0"/></linearGradient><path d="M240 112c30.928 0 56-25.072 56-56S270.928 0 240 0s-56 25.072-56 56c.035 30.913 25.087 55.965 56 56zm0-96c22.091 0 40 17.909 40 40s-17.909 40-40 40-40-17.909-40-40c.026-22.08 17.92-39.974 40-40z" fill="url(#a)"/><linearGradient id="b" gradientUnits="userSpaceOnUse" x1="-26.875" y1="555.755" x2="-26.875" y2="616.575" gradientTransform="matrix(8 0 0 -8 455 4941)"><stop offset="0" stop-color="#006df0"/><stop offset="1" stop-color="#00e7f0"/></linearGradient><path d="M336 328V192c-.044-39.746-32.254-71.956-72-72h-48c-39.746.044-71.956 32.254-72 72v136h32v152h16V296h-16v16h-16V192c.035-30.913 25.087-55.965 56-56h48c30.913.035 55.965 25.087 56 56v120h-16v-16h-16v184h16V328h32z" fill="url(#b)"/><linearGradient id="c" gradientUnits="userSpaceOnUse" x1="-26.875" y1="555.755" x2="-26.875" y2="616.575" gradientTransform="matrix(8 0 0 -8 455 4941)"><stop offset="0" stop-color="#006df0"/><stop offset="1" stop-color="#00e7f0"/></linearGradient><path d="M232 328h16v152h-16V328z" fill="url(#c)"/><linearGradient id="d" gradientUnits="userSpaceOnUse" x1="-6.875" y1="555.755" x2="-6.875" y2="616.575" gradientTransform="matrix(8 0 0 -8 455 4941)"><stop offset="0" stop-color="#006df0"/><stop offset="1" stop-color="#00e7f0"/></linearGradient><path d="M400 176c26.51 0 48-21.49 48-48s-21.49-48-48-48-48 21.49-48 48c.026 26.499 21.501 47.974 48 48zm0-80c17.673 0 32 14.327 32 32s-14.327 32-32 32-32-14.327-32-32 14.327-32 32-32z" fill="url(#d)"/><linearGradient id="e" gradientUnits="userSpaceOnUse" x1="-4.875" y1="555.755" x2="-4.875" y2="616.575" gradientTransform="matrix(8 0 0 -8 455 4941)"><stop offset="0" stop-color="#006df0"/><stop offset="1" stop-color="#00e7f0"/></linearGradient><path d="M480 240c-.035-30.913-25.087-55.965-56-56h-72v16h72c22.08.026 39.974 17.92 40 40v104h-16v-16h-16v152h16V360h32V240z" fill="url(#e)"/><linearGradient id="f" gradientUnits="userSpaceOnUse" x1="-13.875" y1="555.755" x2="-13.875" y2="616.575" gradientTransform="matrix(8 0 0 -8 455 4941)"><stop offset="0" stop-color="#006df0"/><stop offset="1" stop-color="#00e7f0"/></linearGradient><path d="M352 344h-32v16h32v120h16V328h-16v16z" fill="url(#f)"/><linearGradient id="g" gradientUnits="userSpaceOnUse" x1="-6.875" y1="555.755" x2="-6.875" y2="616.575" gradientTransform="matrix(8 0 0 -8 455 4941)"><stop offset="0" stop-color="#006df0"/><stop offset="1" stop-color="#00e7f0"/></linearGradient><path d="M392 360h16v120h-16V360z" fill="url(#g)"/><linearGradient id="h" gradientUnits="userSpaceOnUse" x1="-46.875" y1="555.755" x2="-46.875" y2="616.575" gradientTransform="matrix(8 0 0 -8 455 4941)"><stop offset="0" stop-color="#006df0"/><stop offset="1" stop-color="#00e7f0"/></linearGradient><path d="M80 176c26.51 0 48-21.49 48-48s-21.49-48-48-48-48 21.49-48 48c.026 26.499 21.501 47.974 48 48zm0-80c17.673 0 32 14.327 32 32s-14.327 32-32 32-32-14.327-32-32 14.327-32 32-32z" fill="url(#h)"/><linearGradient id="i" gradientUnits="userSpaceOnUse" x1="-48.875" y1="555.755" x2="-48.875" y2="616.575" gradientTransform="matrix(8 0 0 -8 455 4941)"><stop offset="0" stop-color="#006df0"/><stop offset="1" stop-color="#00e7f0"/></linearGradient><path d="M56 200h72v-16H56c-30.913.035-55.965 25.087-56 56v120h32v120h16V328H32v16H16V240c.026-22.08 17.92-39.974 40-40z" fill="url(#i)"/><linearGradient id="j" gradientUnits="userSpaceOnUse" x1="-39.875" y1="555.755" x2="-39.875" y2="616.575" gradientTransform="matrix(8 0 0 -8 455 4941)"><stop offset="0" stop-color="#006df0"/><stop offset="1" stop-color="#00e7f0"/></linearGradient><path d="M128 328h-16v152h16V360h32v-16h-32v-16z" fill="url(#j)"/><linearGradient id="k" gradientUnits="userSpaceOnUse" x1="-46.875" y1="555.755" x2="-46.875" y2="616.575" gradientTransform="matrix(8 0 0 -8 455 4941)"><stop offset="0" stop-color="#006df0"/><stop offset="1" stop-color="#00e7f0"/></linearGradient><path d="M72 360h16v120H72V360z" fill="url(#k)"/></svg>