<svg height="512pt" viewBox="0 -51 512.004 512" width="512pt" xmlns="http://www.w3.org/2000/svg" xmlns:xlink="http://www.w3.org/1999/xlink"><linearGradient id="a"><stop offset="0" stop-color="#662d91"/><stop offset=".437" stop-color="#3873b3"/><stop offset="1" stop-color="#00c9dd"/></linearGradient><linearGradient id="b" gradientTransform="matrix(1.32488 0 0 -1.32488 0 468.13)" gradientUnits="userSpaceOnUse" x1="12.017" x2="339.083" xlink:href="#a" y1="317.047" y2="-10.019"/><linearGradient id="c" gradientTransform="matrix(1.32488 0 0 -1.32488 0 468.13)" gradientUnits="userSpaceOnUse" x1="17.712" x2="344.778" xlink:href="#a" y1="322.742" y2="-4.324"/><linearGradient id="d" gradientTransform="matrix(1.32488 0 0 -1.32488 0 468.13)" gradientUnits="userSpaceOnUse" x1="107.884" x2="434.95" xlink:href="#a" y1="412.913" y2="85.848"/><linearGradient id="e" gradientTransform="matrix(1.32488 0 0 -1.32488 0 468.13)" gradientUnits="userSpaceOnUse" x1="85.341" x2="412.407" xlink:href="#a" y1="390.37" y2="63.305"/><linearGradient id="f" gradientTransform="matrix(1.32488 0 0 -1.32488 0 468.13)" gradientUnits="userSpaceOnUse" x1="-4.831" x2="322.235" xlink:href="#a" y1="300.199" y2="-26.867"/><linearGradient id="g" gradientTransform="matrix(1.32488 0 0 -1.32488 0 468.13)" gradientUnits="userSpaceOnUse" x1="95.002" x2="422.068" xlink:href="#a" y1="400.032" y2="72.966"/><linearGradient id="h" gradientTransform="matrix(1.32488 0 0 -1.32488 0 468.13)" gradientUnits="userSpaceOnUse" x1="117.545" x2="444.611" xlink:href="#a" y1="422.575" y2="95.509"/><linearGradient id="i" gradientTransform="matrix(1.32488 0 0 -1.32488 0 468.13)" gradientUnits="userSpaceOnUse" x1="0" x2="327.066" xlink:href="#a" y1="305.029" y2="-22.036"/><path d="M486.254 191.926a17.062 17.062 0 00-16.324-12.723h-94.461c-9.668.266-17.297 8.297-17.07 17.961v101.504H289.91a42.261 42.261 0 007.895-17.066H332.8c4.71 0 8.535-3.82 8.535-8.532v-59.734a8.538 8.538 0 00-6.684-8.328l-74.386-16.531-49.442-49.442a8.535 8.535 0 00-6.023-2.5H59.734a8.546 8.546 0 00-6.035 2.5L2.5 190.235A8.53 8.53 0 000 196.27v68.265a8.533 8.533 0 006.46 8.277l28.364 7.09a42.113 42.113 0 008.067 18.766H17.066a8.533 8.533 0 00-8.53 8.535v59.73a8.533 8.533 0 008.53 8.536h43.52c4.691 23.093 27.21 38.011 50.305 33.324a42.67 42.67 0 0033.324-33.324h18.773c4.688 23.093 27.211 38.011 50.305 33.324a42.67 42.67 0 0033.324-33.324h146.774c4.687 23.093 27.207 38.011 50.3 33.324a42.666 42.666 0 0033.325-33.324h26.453a8.534 8.534 0 008.535-8.535v-83.41c0-1.778-.25-3.544-.742-5.25zm-161.988 72.61h-26.454a41.983 41.983 0 00-2.753-8.532h29.207zM256 205.007l68.266 15.152v18.774h-42.664v.222A42.225 42.225 0 00256 230.402zm25.602 68.058c0 14.141-11.461 25.602-25.602 25.602-14.137 0-25.598-11.461-25.598-25.602 0-14.136 11.461-25.597 25.598-25.597 14.14 0 25.602 11.46 25.602 25.597zm-145.07-119.464h64.734l34.132 34.132h-98.867zm0 51.199h102.402v29.219a42.779 42.779 0 00-24.746 30.515H136.53zm85.558 93.867H110.71a42.261 42.261 0 007.895-17.066h95.582a42.276 42.276 0 007.903 17.066zM63.266 153.602h56.199v34.132H29.133zm-27.649 108.91l-18.55-4.64V204.8h102.402v59.734h-.856c-4.648-23.043-27.101-37.953-50.14-33.305a42.556 42.556 0 00-32.844 31.282zm66.781 10.554c0 14.141-11.46 25.602-25.597 25.602-14.14 0-25.602-11.461-25.602-25.602 0-14.136 11.461-25.597 25.602-25.597 14.136 0 25.597 11.46 25.597 25.597zm0 119.47c-14.136 0-25.597-11.462-25.597-25.602 0-14.137 11.46-25.602 25.597-25.602 14.141 0 25.602 11.465 25.602 25.602 0 14.14-11.46 25.601-25.602 25.601zm102.403 0c-14.14 0-25.602-11.462-25.602-25.602 0-14.137 11.465-25.602 25.602-25.602s25.601 11.465 25.601 25.602c0 14.14-11.464 25.601-25.601 25.601zm153.597-34.134H246.613c-4.687-23.093-27.21-38.011-50.304-33.324a42.67 42.67 0 00-33.325 33.324h-18.773c-4.688-23.093-27.211-38.011-50.305-33.324a42.666 42.666 0 00-33.32 33.324H25.602v-42.668h332.8v42.668zM479.504 230.07l9.95 34.465h-79.852v-34.133h68.265a8.333 8.333 0 001.637-.332zm-44.305 162.465c-14.136 0-25.597-11.46-25.597-25.601 0-14.137 11.46-25.602 25.597-25.602 14.14 0 25.602 11.465 25.602 25.602 0 14.14-11.461 25.601-25.602 25.601zm59.735-76.8h-17.067v-8.532h17.067zm0-25.598h-25.602c-4.71 0-8.535 3.82-8.535 8.531v25.602c0 4.71 3.824 8.53 8.535 8.53h25.602v25.602h-17.922c-4.688-23.093-27.211-38.011-50.305-33.324a42.666 42.666 0 00-33.32 33.324h-17.922V197.164c0-.547.215-.852.058-.894l94.336.398 4.813 16.668h-73.61a8.532 8.532 0 00-8.53 8.531v51.203a8.532 8.532 0 008.53 8.532h93.313l.555 1.921v6.614zm0 0" fill="url(#b)"/><path d="M42.668 85.336h68.266v17.066H42.668zm0 0" fill="url(#c)"/><path d="M324.266 128h68.27v17.07h-68.27zm0 0" fill="url(#d)"/><path d="M290.133 128h17.066v17.07h-17.066zm0 0" fill="url(#e)"/><path d="M8.535 85.336h17.067v17.066H8.535zm0 0" fill="url(#f)"/><path d="M187.734.004h17.067V17.07h-17.067zm0 0" fill="url(#g)"/><path d="M221.867.004h68.266V17.07h-68.266zm0 0" fill="url(#h)"/><path d="M153.602 213.336h8.53v17.066h-8.53zm0 0" fill="url(#i)"/></svg>