<svg height="512pt" viewBox="0 -9 512.004 512" width="512pt" xmlns="http://www.w3.org/2000/svg" xmlns:xlink="http://www.w3.org/1999/xlink"><linearGradient id="a"><stop offset="0" stop-color="#662d91"/><stop offset=".437" stop-color="#3873b3"/><stop offset="1" stop-color="#00c9dd"/></linearGradient><linearGradient id="b" gradientTransform="matrix(1.32488 0 0 -1.32488 0 493.752)" gradientUnits="userSpaceOnUse" x1="-.667" x2="344.459" xlink:href="#a" y1="323.694" y2="-21.432"/><linearGradient id="c" gradientTransform="matrix(1.32488 0 0 -1.32488 0 493.752)" gradientUnits="userSpaceOnUse" x1="-59.583" x2="285.542" xlink:href="#a" y1="264.778" y2="-80.348"/><linearGradient id="d" gradientTransform="matrix(1.32488 0 0 -1.32488 0 493.752)" gradientUnits="userSpaceOnUse" x1="62.792" x2="407.918" xlink:href="#a" y1="387.154" y2="42.028"/><linearGradient id="e" gradientTransform="matrix(1.32488 0 0 -1.32488 0 493.752)" gradientUnits="userSpaceOnUse" x1="1.61" x2="346.736" xlink:href="#a" y1="325.971" y2="-19.154"/><linearGradient id="f" gradientTransform="matrix(1.32488 0 0 -1.32488 0 493.752)" gradientUnits="userSpaceOnUse" x1="86.953" x2="432.079" xlink:href="#a" y1="411.314" y2="66.189"/><linearGradient id="g" gradientTransform="matrix(1.32488 0 0 -1.32488 0 493.752)" gradientUnits="userSpaceOnUse" x1="178.733" x2="523.859" xlink:href="#a" y1="503.094" y2="157.969"/><path d="M494.934 366.945v-87.55c0-6.11-2.188-12.02-6.16-16.66l-35.016-40.856h24.11c4.71 0 8.53-3.82 8.53-8.535V170.68a8.533 8.533 0 00-8.53-8.535H423.91l-27.7-69.247a25.476 25.476 0 00-23.765-16.085h-24.21C338.847 25.87 289.94-7.817 239 1.57c-38.254 7.051-68.187 36.985-75.238 75.243H139.55a25.497 25.497 0 00-23.774 16.093L88.09 162.145H25.602a8.534 8.534 0 00-8.536 8.535v42.664a8.534 8.534 0 008.536 8.535H58.25l-34.988 40.86a25.601 25.601 0 00-6.192 16.656v87.55c-9.43 0-17.07 7.64-17.07 17.067v34.133c0 9.425 7.64 17.066 17.066 17.066h17.067v42.668c0 9.426 7.64 17.066 17.07 17.066h68.266c9.426 0 17.066-7.64 17.066-17.066V435.21H375.47v42.668c0 9.426 7.64 17.066 17.066 17.066h68.266c9.426 0 17.07-7.64 17.07-17.066V435.21h17.067c9.425 0 17.066-7.64 17.066-17.066v-34.133c-.004-9.426-7.645-17.067-17.07-17.067zm-25.602-187.734v25.601h-27.586a76.546 76.546 0 01-3.867-7.746l-7.14-17.851h38.593zM256 17.078c42.418.004 76.797 34.387 76.797 76.805 0 42.414-34.387 76.797-76.805 76.797-39.93 0-73.195-30.602-76.527-70.39a79.628 79.628 0 01-.266-6.411c.047-42.395 34.406-76.754 76.801-76.8zm-87.383 110.934c18.793 48.25 73.14 72.133 121.39 53.343a93.756 93.756 0 0053.34-53.343h17.614l27.922 76.8H123.117l27.922-76.8zm-134.484 76.8v-25.601h47.129l-7.133 17.851a78.709 78.709 0 01-3.867 7.75zm0 74.583c0-2.04.73-4.012 2.054-5.555l37.899-44.211a93.692 93.692 0 0015.879-26.234l41.66-104.106a8.544 8.544 0 017.93-5.41h22.578c0 2.629.11 5.23.324 7.809a92.27 92.27 0 001.246 9.257h-18.637a8.534 8.534 0 00-8.02 5.614l-34.132 93.867c-1.613 4.43.672 9.328 5.098 10.937.937.34 1.925.516 2.922.516h290.132a8.539 8.539 0 008.54-8.531 8.57 8.57 0 00-.516-2.922l-34.137-93.867a8.534 8.534 0 00-8.02-5.614h-18.695a94.038 94.038 0 001.63-17.066h22.577a8.526 8.526 0 017.918 5.36l41.668 104.156a93.588 93.588 0 0015.883 26.222l37.895 44.223a8.517 8.517 0 012.058 5.555v87.55H34.133zm17.066 198.484V435.21h68.27v42.668zm341.332 0V435.21h68.27v42.668zm76.801-59.734H17.066v-34.133h477.868v34.133zm0 0" fill="url(#b)"/><path d="M93.867 273.078c-23.566 0-42.668 19.102-42.668 42.668 0 23.563 19.102 42.664 42.668 42.664 23.563 0 42.664-19.101 42.664-42.664-.027-23.555-19.113-42.64-42.664-42.668zm0 68.27c-14.14 0-25.601-11.465-25.601-25.602s11.46-25.601 25.601-25.601c14.137 0 25.602 11.464 25.602 25.601 0 14.137-11.465 25.602-25.602 25.602zm0 0" fill="url(#c)"/><path d="M418.133 273.078c-23.563 0-42.664 19.102-42.664 42.668 0 23.563 19.101 42.664 42.664 42.664 23.566 0 42.668-19.101 42.668-42.664-.028-23.555-19.113-42.64-42.668-42.668zm0 68.27c-14.137 0-25.602-11.465-25.602-25.602s11.465-25.601 25.602-25.601c14.14 0 25.601 11.464 25.601 25.601 0 14.137-11.464 25.602-25.601 25.602zm0 0" fill="url(#d)"/><path d="M341.332 281.613H170.668a8.533 8.533 0 00-8.535 8.532v51.203c0 4.71 3.82 8.53 8.535 8.53h170.668c4.71 0 8.531-3.82 8.531-8.53v-51.203a8.533 8.533 0 00-8.535-8.532zm-8.531 51.2H179.199v-8.536h153.602zm0-25.602H179.199v-8.531h153.602zm0 0" fill="url(#e)"/><path d="M223.574 133.133a8.536 8.536 0 005.973 3.363c.285.031.57.047.855.05a8.512 8.512 0 005.621-2.108l68.27-59.735a8.538 8.538 0 00.8-12.047 8.531 8.531 0 00-12.046-.8l-61.34 53.675-20.078-26.77a8.529 8.529 0 00-11.945-1.706A8.529 8.529 0 00197.977 99zm0 0" fill="url(#f)"/><path d="M503.465 42.68c-18.852 0-34.133-15.285-34.133-34.133a8.533 8.533 0 10-17.066 0c0 18.851-15.282 34.133-34.133 34.133a8.532 8.532 0 00-8.531 8.53 8.533 8.533 0 008.53 8.536c18.852 0 34.134 15.281 34.134 34.133 0 4.71 3.82 8.531 8.535 8.531 4.71 0 8.531-3.82 8.531-8.531 0-18.852 15.285-34.133 34.133-34.133a8.534 8.534 0 100-17.066zM460.8 65.633a51.63 51.63 0 00-14.422-14.422A51.526 51.526 0 00460.8 36.789a51.475 51.475 0 0014.422 14.422A51.578 51.578 0 00460.8 65.633zm0 0" fill="url(#g)"/><path d="M34.133 136.547c0 4.71 3.82 8.531 8.535 8.531 4.71 0 8.531-3.82 8.531-8.531 0-14.14 11.461-25.602 25.602-25.602 4.71 0 8.535-3.82 8.535-8.535 0-4.71-3.824-8.531-8.535-8.531-14.14 0-25.602-11.461-25.602-25.602 0-4.71-3.82-8.53-8.531-8.53a8.533 8.533 0 00-8.535 8.53c0 14.141-11.461 25.602-25.602 25.602a8.534 8.534 0 00.004 17.066c14.137 0 25.598 11.461 25.598 25.602zm8.535-42.934a42.6 42.6 0 008.797 8.801 42.486 42.486 0 00-8.797 8.797 42.6 42.6 0 00-8.8-8.797 42.715 42.715 0 008.8-8.8zm0 0" fill="url(#e)"/></svg>