<svg height="64" width="64" xmlns="http://www.w3.org/2000/svg"><path d="M32 1C14.906 1 1 14.907 1 32s13.906 31 31 31 31-13.907 31-31S49.094 1 32 1zm0 60C16.01 61 3 47.991 3 32S16.01 3 32 3s29 13.009 29 29-13.01 29-29 29z"/><path d="M32 7C18.215 7 7 18.215 7 32s11.215 25 25 25 25-11.215 25-25S45.785 7 32 7zm10 28a1 1 0 00-.707 1.707l9.094 9.094a22.942 22.942 0 01-1.441 1.731L37.598 36.184A6.957 6.957 0 0038.92 33h16.055c-.029.675-.09 1.341-.177 2zm12.446 2a22.876 22.876 0 01-2.911 7.121L44.414 37zm-17.739 4.293A1.002 1.002 0 0035 42v12.798c-.659.086-1.325.148-2 .177V38.92a6.947 6.947 0 003.184-1.322l11.348 11.348c-.553.507-1.13.989-1.731 1.441zm7.414 10.242A22.866 22.866 0 0137 54.446V44.414zM27 54.446a22.876 22.876 0 01-7.121-2.911L27 44.414zm1.383-13.37a1.002 1.002 0 00-1.09.217l-9.094 9.094a22.942 22.942 0 01-1.731-1.441l11.348-11.348A6.957 6.957 0 0031 38.92v16.055a22.716 22.716 0 01-2-.177V42a1 1 0 00-.617-.924zm-5.676-4.369A1 1 0 0022 35H9.202a23.104 23.104 0 01-.177-2H25.08a6.947 6.947 0 001.322 3.184L15.054 47.532a23.184 23.184 0 01-1.441-1.731zm-10.242 7.414A22.866 22.866 0 019.554 37h10.032zM22 29a1 1 0 00.707-1.707l-9.094-9.094c.452-.601.933-1.178 1.441-1.731l11.348 11.348A6.947 6.947 0 0025.08 31H9.025c.029-.675.09-1.341.177-2zM9.554 27a22.876 22.876 0 012.911-7.121L19.586 27zm17.739-4.293A1 1 0 0029 22V9.202a23.104 23.104 0 012-.177V25.08a6.947 6.947 0 00-3.184 1.322L16.468 15.054c.553-.507 1.13-.989 1.731-1.441zm-7.414-10.242A22.866 22.866 0 0127 9.554v10.032zM37 9.554a22.876 22.876 0 017.121 2.911L37 19.586zm-1.383 13.37a1.006 1.006 0 001.09-.217l9.094-9.094c.601.452 1.178.933 1.731 1.441L36.184 26.402A6.947 6.947 0 0033 25.08V9.025c.675.029 1.341.09 2 .177V22a1 1 0 00.617.924zM32 37c-2.757 0-5-2.243-5-5s2.243-5 5-5 5 2.243 5 5-2.243 5-5 5zm6.92-6a6.947 6.947 0 00-1.322-3.184l11.348-11.348c.507.553.989 1.13 1.441 1.731l-9.094 9.094A1 1 0 0042 29h12.798c.086.659.148 1.325.177 2zm5.494-4l7.121-7.121A22.866 22.866 0 0154.446 27z"/><path d="M32 29c-1.654 0-3 1.346-3 3s1.346 3 3 3 3-1.346 3-3-1.346-3-3-3zm0 4a1.001 1.001 0 010-2 1.001 1.001 0 010 2z"/></svg>