<svg xmlns="http://www.w3.org/2000/svg" data-name="Layer 1" viewBox="0 0 512 512" width="64" height="64"><path d="M154.245 230h80.068a6 6 0 000-12h-80.068a6 6 0 000 12zm99.231 19h31.068a20.5 20.5 0 100-41h-25.451a5.948 5.948 0 00-5.891 4.8l-5.617 29.036a6.019 6.019 0 005.891 7.164zm10.568-29h20.5a8.5 8.5 0 110 17h-23.8zm-123.069 21.823l-5.619-29.013a5.953 5.953 0 00-5.89-4.81h-25.45a20.5 20.5 0 100 41h31.068a6.039 6.039 0 005.891-7.177zM104.016 237a8.5 8.5 0 110-17h20.5l3.3 17z"/><path d="M272.392 294l.145 20.376a14.673 14.673 0 004.321 10.337A14.514 14.514 0 00287.026 329h.111l23.019-.38a14.423 14.423 0 0014.391-14.494L324.4 294h.279c4.556 0 8.317-4.151 8.317-8.708V265.1a8.838 8.838 0 00-6-7.959v-42.677a23.353 23.353 0 00-19.979-23.021l-16.277-44.621A24.208 24.208 0 00267.957 131H124.446a24.168 24.168 0 00-22.756 15.823l-16.01 44.682A23.031 23.031 0 0066 214.464v42.675c-4 .964-7 4.162-7 7.959v20.194A9.065 9.065 0 0067.722 294h.178l.146 20.6A14.519 14.519 0 0082.534 329h.109l23.018-.38a14.423 14.423 0 0014.392-14.494L119.909 294zm37.68 22.731l-23.019.269h-.02a2.538 2.538 0 01-1.752-.946 2.2 2.2 0 01-.744-1.651l-.145-20.4H312.4l.143 20.1a2.6 2.6 0 01-2.471 2.628zM112.97 150.819A12.045 12.045 0 01124.446 143h143.511a12.046 12.046 0 0111.477 7.819L294.105 191H98.3zM78 214.464C78 208.252 82.582 203 88.794 203H303.61A11.556 11.556 0 01315 214.464V257h-67.2l-10.264-17.844a6.162 6.162 0 00-5.187-3.156H155.6a6.162 6.162 0 00-5.189 3.156L140.151 257H78zM233.924 257h-79.9l5.03-9H228.9zm-128.347 59.731L82.559 317h-.02a2.505 2.505 0 01-2.5-2.483L79.9 294h28.012l.144 20.1a2.6 2.6 0 01-2.479 2.631zM71 282v-13h250v13zM43 121.714a6 6 0 00-6 6v93a6 6 0 1012 0v-93a6 6 0 00-6-6zm0-23.887a6 6 0 00-6 6v4.95a6 6 0 0012 0v-4.95a6 6 0 00-6-6zm51.881 269.99a8.838 8.838 0 018.828 8.829 6.03 6.03 0 0012.06 0c0-9.4-6.769-17.356-14.769-19.939v-3.038a6 6 0 00-12 0v3.038a20.4 20.4 0 00-14.889 19.939 20.828 20.828 0 0020.8 20.828A8.826 8.826 0 0195 415.126h-.219a8.836 8.836 0 01-8.723-8.823 5.971 5.971 0 10-11.942 0A20.4 20.4 0 0089 426.242v3.712a6 6 0 0012 0v-3.712c8-2.584 14.769-10.54 14.769-19.939a20.878 20.878 0 00-20.859-20.829 8.829 8.829 0 11-.029-17.657zM278.665 355H140.781a6 6 0 000 12h137.884a6 6 0 000-12zm-50.676 61h-87.208a6 6 0 100 12h87.208a6 6 0 100-12z"/><path d="M450.123 286.206L382 330.86V84.959A39.218 39.218 0 00343.029 46H301V25.931a6 6 0 10-12 0V46h-56V25.931a6 6 0 00-12 0V46h-56V25.931a6 6 0 00-12 0V46H96V25.931a6 6 0 10-12 0V46H48.7A38.988 38.988 0 0010 84.959v368.468A38.658 38.658 0 0048.7 492h294.329C364.37 492 382 474.734 382 453.427v-42.5L486.955 342.1a33.415 33.415 0 009.554-46.315 33.58 33.58 0 00-46.386-9.579zm-.728 14.825l8.5 12.909-165.674 108.6-8.5-12.908zM294.648 448.052l-34.214.895 15.527-29.283zm.226-371.294a12.073 12.073 0 11-12.106 12.073 12.1 12.1 0 0112.106-12.073zm-68.157 0a12.073 12.073 0 11-12.107 12.073 12.1 12.1 0 0112.107-12.073zm-68.156 0a12.073 12.073 0 11-12.108 12.073 12.1 12.1 0 0112.108-12.073zm-68.158 0A12.073 12.073 0 1178.3 88.831a12.1 12.1 0 0112.1-12.073zM370 453.427C370 468.118 357.754 480 343.029 480H48.7A26.644 26.644 0 0122 453.427V84.959A26.975 26.975 0 0148.7 58H84v7.513a24.1 24.1 0 006.3 47.387 23.988 23.988 0 0023.955-24.073A23.609 23.609 0 0096 65.513V58h57v7.513a23.669 23.669 0 00-18.327 23.318 24.134 24.134 0 0048.268 0A24.431 24.431 0 00165 65.513V58h56v7.513a23.6 23.6 0 00-18.248 23.318 24.125 24.125 0 0048.249 0 24.484 24.484 0 00-18-23.318V58h56v7.513a23.532 23.532 0 00-18.17 23.318 24.115 24.115 0 0048.23 0A24.537 24.537 0 00301 65.513V58h42.029A27.205 27.205 0 01370 84.959v253.767l-86.338 56.593a6 6 0 00-5-9.319H140.781a6 6 0 100 12h137.884a5.956 5.956 0 001.058-.1l-7.608 4.987a6.006 6.006 0 00-2.01 2.208L245.019 452.4a6 6 0 005.3 8.811h.283l55.4-1.446v-.008a5.767 5.767 0 003.008-.972L370 418.793zm-62.687-7.96l-8.5-12.908 165.675-108.6 8.5 12.907zm182.24-126.977a21.247 21.247 0 01-6.676 11.577l-23.3-35.386a21.532 21.532 0 0126.888 7.706 21.258 21.258 0 013.088 16.103z"/></svg>