<svg height="64" width="64" xmlns="http://www.w3.org/2000/svg"><g data-name="Airbrush-paint-car repair-car door-car Parts"><path d="M59 2H35.96a3 3 0 00-2.34 1.11L25 13.79V13a1 1 0 00-1-1H10a1 1 0 00-1 1v18a1 1 0 00.5.87l4.5 2.57V37H8a1 1 0 00-1-1H3a1 1 0 00-1 1v8a1 1 0 001 1h4a1 1 0 001-1h.74L5.03 60.77a1 1 0 00.19.85A.986.986 0 006 62h7a1 1 0 00.97-.77L14.5 59H59a3.009 3.009 0 003-3V5a3.009 3.009 0 00-3-3zM6 44H4v-6h2zm19-19.64L38.47 8H56v20H25zM11 14h12v5.45a5.419 5.419 0 01-.9-.35 5.705 5.705 0 00-2.77-.66 5.692 5.692 0 00-2.76.66 3.723 3.723 0 01-1.91.46 3.71 3.71 0 01-1.9-.46 5.793 5.793 0 00-1.76-.59zm0 16.42v-9.87a5.419 5.419 0 01.9.35 5.692 5.692 0 002.76.66 5.705 5.705 0 002.77-.66 3.682 3.682 0 011.9-.46 3.655 3.655 0 011.9.46 5.968 5.968 0 001.77.59v8.93l-4.5 2.57a1 1 0 00-.5.87V37h-2v-3.14a1 1 0 00-.5-.87zM8 43v-4h17v4zm12.67 2l-1.42 5h-2.63l1.17-5zm-8.46 15H7.26l3.53-15h4.95zM60 56a1 1 0 01-1 1H14.97l1.18-5H20a1 1 0 00.96-.73L22.75 45H25a1 1 0 001 1h3a1 1 0 00.51-.14l5-3A.99.99 0 0035 42v-2a.99.99 0 00-.49-.86l-5-3A1 1 0 0029 36h-3a1 1 0 00-1 1h-5v-2.56l4.5-2.57A1 1 0 0025 31v-1h32a1 1 0 001-1V7a1 1 0 00-1-1H38a.992.992 0 00-.77.36L25 21.21v-4.24l10.18-12.6a.976.976 0 01.78-.37H59a1 1 0 011 1zM27 44v-6h1v6zm3-.77v-4.46l3 1.8v.86z"/><path d="M55 32h-3a3 3 0 000 6h3a3 3 0 000-6zm0 4h-3a1 1 0 010-2h3a1 1 0 010 2zm-17 4h2v2h-2zm4 0h2v2h-2zm4 0h2v2h-2zm-10.594 3.828l1.414-1.414 1.414 1.414-1.414 1.414zm2.828 2.828l1.414-1.414 1.414 1.414-1.414 1.414zm2.826 2.829l1.415-1.414 1.414 1.414-1.414 1.414zm-5.654-11.313l1.414-1.414 1.414 1.414-1.414 1.414zm2.829-2.829l1.414-1.414 1.414 1.414-1.414 1.414zm2.828-2.827l1.414-1.414 1.414 1.414-1.414 1.414z"/></g></svg>