<svg height="64" viewBox="0 0 512 512" width="64" xmlns="http://www.w3.org/2000/svg"><path d="M500.661 292.325a7.5 7.5 0 10-12.934 7.598 67.448 67.448 0 019.272 34.138c0 37.234-30.292 67.526-67.525 67.526-37.234 0-67.526-30.292-67.526-67.526a67.41 67.41 0 015.785-27.352l19.928 18.952a42.657 42.657 0 00-.836 8.4c0 23.517 19.132 42.648 42.648 42.648s42.648-19.132 42.648-42.648-19.132-42.648-42.648-42.648c-3.558 0-7.066.449-10.484 1.316l-19.927-18.95c9.384-4.753 19.739-7.243 30.411-7.243a67.52 67.52 0 0143.782 16.14 7.469 7.469 0 004.863 1.794 7.5 7.5 0 004.871-13.206 82.538 82.538 0 00-53.517-19.728c-14.83 0-29.167 3.922-41.824 11.389l-9.227-8.775c13.672-7.777 29.472-12.226 46.294-12.226 4.977 0 9.994.398 14.914 1.182a7.494 7.494 0 006.091-1.737l23.667-20.495a30.17 30.17 0 008.401-11.885c6.322-16.248 6.631-46.921-5.424-60.688-33.063-37.765-82.127-56.354-138.147-52.354-13.757.984-21.69 16.185-14.604 28.096l3.297 5.541h-15.65c-4.143 0-7.5 3.358-7.5 7.5s3.357 7.5 7.5 7.5h24.178a54.036 54.036 0 014.829 24.352c-15.045-13.381-34.41-20.837-55.026-20.837-27.174 0-52.207 13.048-67.788 35.1h-53.965a18.766 18.766 0 01-11.712-4.122L92.9 134.987a7.5 7.5 0 00-4.697-1.653H43.334c-12.449 0-22.577 10.128-22.577 22.577a22.634 22.634 0 009.407 18.338l16.143 11.594a7.501 7.501 0 008.75-12.184l-16.142-11.594a7.594 7.594 0 01-3.158-6.155c0-4.178 3.399-7.577 7.577-7.577h42.229l52.821 42.438a33.815 33.815 0 0021.106 7.428h56.767l48.568 18.564 26.732 10.218c-1.392.721-19.418 16.52-48.707 16.52h-16.47c-16.492 0-32.15 8.863-40.559 24.079l-12.396-8.904-.005-.003-98.027-70.408a7.501 7.501 0 00-8.75 12.183l88.878 63.837-16.167 9.945c-15.273-14.491-35.65-22.696-56.827-22.696C37.021 251.535 0 288.555 0 334.06s37.021 82.526 82.526 82.526 82.525-37.021 82.525-82.526c0-6.991-.894-13.914-2.64-20.658l17.753-10.923v56.229c0 21.437 17.439 38.876 38.875 38.876h36.136v4.002h-48.931c-4.143 0-7.5 3.357-7.5 7.5s3.357 7.5 7.5 7.5h56.431c4.143 0 7.5-3.357 7.5-7.5v-11.502h68.815a7.5 7.5 0 006.335-11.516c-9.512-15.004-14.539-32.367-14.539-50.214 0-18.508 5.383-35.78 14.662-50.34l10.88 10.347a82.35 82.35 0 00-9.38 38.198c0 45.505 37.021 82.526 82.526 82.526S512 379.565 512 334.06a82.46 82.46 0 00-11.339-41.735zm-43.538 41.735c0 15.245-12.403 27.648-27.648 27.648-13.321 0-24.471-9.471-27.074-22.032l11.413 10.853a22.632 22.632 0 0015.659 6.258 22.829 22.829 0 0016.472-7.066 22.574 22.574 0 006.251-16.232 22.573 22.573 0 00-7.06-15.897l-11.412-10.853c13.235 2.05 23.399 13.521 23.399 27.321zm6.446-172.005c5.653 12.442 3.913 33.723-.111 42.307-10.118-1.719-17.846-10.548-17.846-21.148 0-10.629 7.77-19.476 17.957-21.159zM281.244 163.1c19.941 0 38.463 8.511 51.412 23.485-7.528 19.529-22.243 26.267-26.483 29.924l-62.563-23.913-14.269-5.454c12.845-15.2 31.651-24.042 51.903-24.042zM180.717 282.383a50.66 50.66 0 00-.321 2.343l-66.663 41.016-.073.045-22.448 13.812c-3.648 2.2-8.408 1.021-10.607-2.627a7.662 7.662 0 01-.833-6.038c.526-1.92 1.755-3.542 3.518-4.604l23.529-14.474.063-.038 35.097-21.589.04-.025 26.71-16.43zM67.759 344.716c4.259 7.062 11.772 10.977 19.488 10.977 4.012 0 8.078-1.059 11.769-3.284l7.487-4.607c-4.776 8.302-13.731 13.908-23.977 13.908-15.245 0-27.648-12.403-27.648-27.648s12.403-27.648 27.648-27.648c1.358 0 2.701.107 4.024.3l-11.062 6.805a22.628 22.628 0 00-10.182 13.444 22.834 22.834 0 002.453 17.753zm82.293-10.656c0 37.234-30.292 67.526-67.525 67.526C45.292 401.587 15 371.295 15 334.06c0-37.233 30.292-67.525 67.526-67.525 15.973 0 31.379 5.722 43.483 15.904l-23.058 14.184c-6.241-3.421-13.212-5.211-20.425-5.211-23.517 0-42.648 19.132-42.648 42.648s19.132 42.648 42.648 42.648c22.748 0 41.39-17.902 42.585-40.357l23.788-14.636a67.279 67.279 0 011.153 12.345zm176.247 48.525h-107.26c-13.165 0-23.875-10.711-23.875-23.876v-68.991c0-15.595 11.485-28.388 26.125-30.793 13.373-2.23 43.373 5.783 76.805-18.171 23.647-16.946 45.104-27.764 51.75-59.539a69.073 69.073 0 00-2.281-36.629h8.885c4.143 0 7.5-3.358 7.5-7.5s-3.357-7.5-7.5-7.5h-16.082l-7.859-13.211c-1.355-2.277.105-5.273 2.782-5.465 46.741-3.341 88.026 10.354 117.607 38.72-13.082 5.539-22.283 18.508-22.283 33.585 0 14.639 8.679 27.282 21.158 33.075l-13.283 11.503a110.05 110.05 0 00-13.77-.869c-60.002 0-108.932 48.734-108.932 108.932 0 16.271 3.607 32.2 10.513 46.729zm39.451-119.787l15.808 15.033.02.019 53.221 50.612a7.675 7.675 0 012.4 5.404 7.682 7.682 0 01-2.125 5.52 7.663 7.663 0 01-5.603 2.402c-1.99 0-3.88-.756-5.323-2.127l-53.21-50.602a1.065 1.065 0 00-.049-.046l-16.336-15.535a94.903 94.903 0 0111.197-10.68z"/><path d="M256 340.71h-21.541c-4.143 0-7.5 3.357-7.5 7.5s3.357 7.5 7.5 7.5H256c4.143 0 7.5-3.357 7.5-7.5s-3.357-7.5-7.5-7.5z"/></svg>