<svg xmlns="http://www.w3.org/2000/svg" viewBox="0 0 512 512" width="64" height="64"><path d="M32 392a8 8 0 00-8 8v64a8 8 0 008 8h224a39.754 39.754 0 0020.788-5.839C299.732 474.741 331.115 480 360 480c50.309 0 120-16.681 120-48V160a120 120 0 00-240 0v40h-16a8 8 0 00-8 8v127.432l-90.108-90.108a8 8 0 00-11.313 0l-45.255 45.255a8 8 0 000 11.313L159.432 392zm432-136v96a16 16 0 01-32 0v-48a24 24 0 00-48 0v8a16 16 0 01-32 0v-56.139c2.681.086 5.352.139 8 .139 35.423 0 80.452-8.27 104-24.1zm-30.684-27.293C412.437 235.778 385.03 240 360 240a248.109 248.109 0 01-64-8.451V208a8 8 0 00-8-8h-26.646c4.873-4.073 13.172-8.589 25.33-12.707C307.562 180.222 334.97 176 360 176s52.437 4.222 73.316 11.293C454.512 194.472 464 202.866 464 208s-9.488 13.528-30.684 20.707zM280 399.432l-48-48V344h48zM280 328h-48v-48h48zm-30.059 64h-67.882l-5.255-5.255 33.941-33.945zm-84.451-16.568l-33.941-33.942 33.941-33.941 33.942 33.941zM40 456v-48h48v48zm64-48h48v48h-48zm64 48v-48h48v48zm64 0v-48h24a24 24 0 010 48zm201.316-3.293C412.437 459.778 385.03 464 360 464c-24.161 0-50.046-3.869-70.4-10.335A39.756 39.756 0 00296 432V248.1a261.115 261.115 0 0040 6.774V312a32 32 0 0064 0v-8a8 8 0 0116 0v48a31.976 31.976 0 0048 27.7V432c0 5.134-9.488 13.528-30.684 20.707zM360 56a104.118 104.118 0 01104 104v24.1c-23.548-15.83-68.577-24.1-104-24.1s-80.452 8.27-104 24.1V160A104.118 104.118 0 01360 56zM232 216h48v48h-48zM86.294 296.235l33.941-33.941 33.942 33.941-33.942 33.942z"/><circle cx="256" cy="432" r="11"/></svg>