<svg xmlns="http://www.w3.org/2000/svg" width="64" height="64"><path d="M22.246 46.016a2 2 0 10-.492 3.968 1.961 1.961 0 00.252.016 2 2 0 00.24-3.984zM21.906 49l.083-.864.017-.136z"/><path d="M61.434 29.734l1.132-1.648a3.956 3.956 0 00-2.776-.678l-13.847 1.809a4 4 0 00-2.99 1.975l-3.692 6.441-3.347-2.307a3.563 3.563 0 00-4.657.548l1.486 1.339a1.556 1.556 0 012.036-.24l2.537 1.748-.273.291-.979-.383A1 1 0 0034.87 39l-.226.338a1.365 1.365 0 00-1.471-.22 3.978 3.978 0 00-1.268 1.043 3.536 3.536 0 00-1.84-1.018l-.643-.863a1 1 0 00-.751-.4.98.98 0 00-.788.323l-.463.506-.537-.778a1 1 0 00-1.446-.215l-.582.464-4.018-7.008a4.039 4.039 0 00-2.978-1.985l-13.869-1.8a3.944 3.944 0 00-2.5.511l1.016 1.724a1.94 1.94 0 011.233-.25l5.472.71-.733 5.97-6.354-.8-.252 1.984 6.362.806-.854 6.946-5.257-.666-.248 1.978 14.132 1.792a5.985 5.985 0 005.263 5.861 6.194 6.194 0 00.742.045 5.986 5.986 0 005.769-4.42l3.1.392a.9.9 0 00.126.008 1 1 0 00.881-.531 1 1 0 00.887.551.9.9 0 00.126-.008l3.3-.417a6 6 0 005.061 4.38 6.194 6.194 0 00.742.045 6 6 0 005.942-5.269 6.213 6.213 0 00.054-.635L62.126 46.3l-.252-1.984-5.466.693-.855-6.948 6.573-.831-.252-1.984-6.565.829-.732-5.971 5.477-.715a1.938 1.938 0 011.38.345zM11.2 30.34l6.409.832a2.034 2.034 0 011.5 1l3.231 5.639-11.87-1.5zm14.77 18.147a4 4 0 01-7.94-.974A4 4 0 0121.992 44a4.106 4.106 0 01.494.03 4 4 0 013.484 4.457zm4.807-5.587l-.632 4.96-2.16-.273A6 6 0 0016.3 46.115l-6.938-.879.855-6.947 13.029 1.649v.047a1 1 0 001.622.738l.972-.774.641.929a1 1 0 00.755.43 1.029 1.029 0 00.806-.322l.494-.539.157.211a1 1 0 00.675.394 1.45 1.45 0 011.409 1.848zm13.911-10.713a2 2 0 011.5-.985l6.406-.837.731 5.963-11.871 1.5zm1.282 16.3a4 4 0 01-7.94-.974A4 4 0 0141.992 44a4.106 4.106 0 01.494.03 4 4 0 013.484 4.457zm1.722-2.37a6 6 0 00-11.646 1.152c-.013.106-.016.212-.024.318l-2.376.3-.634-4.956a2.012 2.012 0 01.7-1.779 1.809 1.809 0 001.335.536 1 1 0 00.72-.436l.312-.464.862.337a1 1 0 001.094-.247l.636-.678 14.9-1.882.855 6.949z"/><path d="M42.246 46.016a2 2 0 10-.492 3.968 1.961 1.961 0 00.252.016 2 2 0 00.24-3.984zM41.906 49l.083-.864.017-.136zM24.071 32.749l1.858-.744-2.676-6.689 5.147 3.861a1 1 0 001.558-.513l2.177-7.257 2.936 7.342a1 1 0 001.459.476l4.987-3.117L39.1 30.93l1.79.894 4-8a1 1 0 00-1.425-1.3L36.484 26.9l-3.555-8.89a.973.973 0 00-.974-.627 1 1 0 00-.913.712l-2.588 8.627-6.854-5.145a1 1 0 00-1.529 1.172zM10.707 20.084L12 18.791l1.293 1.293 1.414-1.414-1.293-1.293 1.293-1.293-1.414-1.414L12 15.963l-1.293-1.293-1.414 1.414 1.293 1.293-1.293 1.293 1.414 1.414zm3.503 1.92l1.561-1.248 3.996 5-1.562 1.249z"/><path d="M37.293 21.67l5.522-5.522 1.414 1.414-5.522 5.523zm8.414-5.586L47 14.791l1.293 1.293 1.414-1.414-1.293-1.293 1.293-1.293-1.414-1.414L47 11.963l-1.293-1.293-1.414 1.414 1.293 1.293-1.293 1.293 1.414 1.414zM11.964 42.425l.322-1.974 3.063.5-.323 1.974zm36.23-1.846l3.062-.563.362 1.967-3.063.563z"/></svg>