<svg height="64" viewBox="0 0 512 512" width="64" xmlns="http://www.w3.org/2000/svg"><path d="M503.708 122.083c-1.52-.76-23.859-11.559-78.915-20.346-.291-.052-.581-.106-.874-.14C385.261 95.481 330.647 90.375 256 90.375c-182.196 0-245.119 30.414-247.708 31.708A15.001 15.001 0 000 135.5v271.125a15.002 15.002 0 0017.137 14.847c1.223-.176 123.604-17.597 238.863-17.597 115.182 0 237.641 17.421 238.864 17.597A15 15 0 00512 406.625V135.5c0-5.682-3.21-10.875-8.292-13.417zM301.25 180.625v30.25h-90.5v-30.25zM482 389.512c-38.223-4.817-134.287-15.637-226-15.637s-187.777 10.82-226 15.637V145.735c20.967-7.202 83.406-24.047 211-25.285v30.175h-45.25c-8.284 0-15 6.716-15 15v60.25c0 8.284 6.716 15 15 15h120.5c8.284 0 15-6.716 15-15v-60.25c0-8.284-6.716-15-15-15H271V120.45c48.172.467 87.056 3.158 117.924 6.715L359.655 154.7a15 15 0 00-1.835 19.772l36.566 50.071-30.88 32.049c-5.748 5.966-5.571 15.461.394 21.209a14.952 14.952 0 0010.406 4.198c3.933 0 7.86-1.537 10.804-4.592l39.625-41.125a15 15 0 001.312-19.254l-36.188-49.553 37.114-34.914c28.052 4.819 45.695 9.962 55.028 13.168v243.783z"/></svg>