<svg xmlns="http://www.w3.org/2000/svg" viewBox="0 0 512 512" width="64" height="64"><g data-name="Out line"><path d="M309.17 360.045l5.06-15.18 16.3 5.434-5.06 15.18zm64.367 21.456l5.06-15.18 18.633 6.211-5.06 15.18zm-32.002-10.667l5.06-15.18 16 5.334-5.06 15.18zm-30.912 50.08l14.311-7.155 7.543 15.085-14.31 7.155zm-15.116-30.232l14.31-7.156 7.575 15.147-14.31 7.156zm-55.815-92.484a8 8 0 00-5.752-9.959l-31.03-7.758A44.1 44.1 0 00208 260v-60a8 8 0 00-8-8h-72a8 8 0 00-8 8v57.582l-20.849-8.936a8.001 8.001 0 00-10.579 4.383l-1.442 3.606-20.159-8.063-5.942 14.856 20.159 8.063-2.386 5.964-20.862-5.216a8 8 0 00-9.701 5.82l-1.994 7.976-20.047-5.727-4.396 15.384 20.56 5.874-2.123 8.493a8 8 0 006.026 9.75l6.895 1.533-20.878 76.554c-.049.178-.083.357-.119.536l-.008-.001-8 40A8 8 0 0032 448v48h16v-48h16a8 8 0 007.732-5.948l5.617-21.17 8.121 2.708A8 8 0 0096 416v-85.138l3.057.679a23.995 23.995 0 005.2.573 23.578 23.578 0 007.743-1.308V352a7.998 7.998 0 001.344 4.438l16 24A8 8 0 00136 384h32a8 8 0 006.656-12.438L160 349.579V330.93l19.884 11.93c.177.106.363.188.546.28l-.008.015 32 16a8 8 0 0011.27-4.957l5.908-20.677 19.204 6.402 5.06-15.18-19.864-6.62zM57.846 432H41.758l4.31-21.544 16.072 5.357zM80 404.9l-30.29-10.096 19.087-69.987L80 327.307zm29.087-90.504a7.743 7.743 0 01-6.56 1.526l-44.774-9.95 4.068-16.27 44.283 11.07a7.785 7.785 0 012.983 13.623zM112 285.85a24.05 24.05 0 00-2.015-.601l-15.517-3.88 5.915-14.788 11.617 4.98zM140.281 368L128 349.578v-71.16l16 6.857V352a7.998 7.998 0 001.344 4.438L153.052 368zm39.283-43.991L160 312.269v-22.825l29.45 4.908zM192 224h-40v16h40v20a27.698 27.698 0 01-6.168 17.528l-31.567-5.261-17.874-7.66A28.248 28.248 0 01136 260v-52h56zm18.956 116.534l-17.172-8.586 11.463-34.39 16.789 4.197zm140.957-43.49l15.085-7.543 7.157 14.31-15.085 7.544zM321.68 312.16l15.149-7.575 7.156 14.31-15.148 7.575zm-15.367 7.684l-26.859 13.429-13.158-4.385-5.059 15.179 13.157 4.386 13.429 26.86 14.311-7.155-11.334-22.669 22.668-11.335-7.155-14.31z"/><path d="M495.094 110.533a53.47 53.47 0 00-22.906-34.69 37.607 37.607 0 01-5.71-4.679l-4.93-4.93-.001-.001-10-10a136.52 136.52 0 00-74.557-38.35l-.007-.001-.01-.002-.013-.002A135.771 135.771 0 00354.41 16H254.16a215.994 215.994 0 00-152.737 63.263L84.597 96.089a72.02 72.02 0 00-56 31.219 70.921 70.921 0 00-10.672 24.119A72.022 72.022 0 0016 168v48a8 8 0 008 8h80v-16H78.806l20-16H112v-16H96a8 8 0 00-4.998 1.753L53.194 208H32v-39.771a39.807 39.807 0 0010.277 3.583l3.489.704a72.193 72.193 0 0036.887-2.297l7.88-2.63a8 8 0 002.266-13.99l-14.908-11.178a102.761 102.761 0 00-28.454-14.99A55.98 55.98 0 0188 112h284.46a132.19 132.19 0 0082.998-29.23 53.617 53.617 0 007.855 6.386 37.56 37.56 0 0112.254 13.5c.382.713.727 1.443 1.06 2.177a63.11 63.11 0 00-34.284 17.51 8 8 0 00.66 11.904L480 163.845V208h-8a48 48 0 00-96 0h-64a48.024 48.024 0 10-2.752 16h69.504a47.99 47.99 0 0090.496 0H488a8 8 0 008-8v-95.66a53.505 53.505 0 00-.906-9.807zM354.41 32c3.92 0 7.84.19 11.72.57L353.443 96H312V80a8 8 0 00-6.06-7.76l-18.569-4.643 5.657-7.07A75.63 75.63 0 01352 32zm-78.034 49.34L296 86.246V96h-31.354zm-98.754-34.117A199.009 199.009 0 01254.16 32h46.32a92.324 92.324 0 00-19.946 18.532L244.155 96H107.314l5.423-5.423a198.994 198.994 0 0164.885-43.354zM70.52 156.892a56.186 56.186 0 01-21.607-.064l-3.489-.704a24.054 24.054 0 01-10.766-5.19 54.852 54.852 0 014.297-9.986 86.78 86.78 0 0129.336 14.273zM369.759 96l12.165-60.812a120.503 120.503 0 0158.31 32.359l3.831 3.832A116.214 116.214 0 01372.46 96zM264 240a32 32 0 1132-32 32.036 32.036 0 01-32 32zm160 0a32 32 0 1132-32 32.036 32.036 0 01-32 32zm36.684-112.099A47.185 47.185 0 01480 120.487v22.868z"/><path d="M149.47 167.59l7.876 2.625a72.109 72.109 0 0036.889 2.297l3.477-.696a40.181 40.181 0 0030.96-29.521l.79-3.157a14 14 0 00-16.328-17.123l-9.754 1.95a102.82 102.82 0 00-41.271 18.453L147.2 153.6a8 8 0 002.27 13.99zm22.239-12.371a86.71 86.71 0 0134.81-15.564l6.654-1.33-.023.09a24.108 24.108 0 01-18.576 17.712l-3.476.695a56.08 56.08 0 01-21.617.067z"/><circle cx="264" cy="208" r="8"/><circle cx="424" cy="208" r="8"/><path d="M418.343 122.343A19.187 19.187 0 01404.687 128H400v16h4.687a35.084 35.084 0 0024.97-10.343zM312 128h32v16h-32z"/></g></svg>