<svg height="64" viewBox="0 0 60 60" width="64" xmlns="http://www.w3.org/2000/svg"><path d="M9.5 41.937a3.507 3.507 0 10.006-7.014 3.507 3.507 0 00-.006 7.014zM8.261 37.6a1.488 1.488 0 011.237-.646 1.5 1.5 0 011.478 1.226 1.492 1.492 0 01-1.208 1.734 1.5 1.5 0 01-1.748-1.2c-.072-.389.015-.79.241-1.114zm41.268-3.111a3.506 3.506 0 10.006-7.012 3.506 3.506 0 00-.006 7.012zm-1.235-4.341a1.5 1.5 0 011.237-.644 1.5 1.5 0 011.477 1.225 1.492 1.492 0 01-1.208 1.735 1.5 1.5 0 01-1.747-1.2c-.073-.39.014-.791.241-1.116zm-32.189 7.271a3.007 3.007 0 003.49 2.41L41.257 35.9a2.995 2.995 0 002.416-3.483l-.358-1.962a3.008 3.008 0 00-3.489-2.409l-21.663 3.929a3 3 0 00-2.416 3.482zm12.979-1.343l-3.94.714-.715-3.917 3.939-.714zm1.253-4.276l3.939-.714.716 3.917-3.94.714zm9.846-1.784a1 1 0 011.165.799l.358 1.962a.995.995 0 01-.806 1.156l-3.94.714-.716-3.918zm-22.308 4.34a1 1 0 01.645-.415l3.941-.714.715 3.918-3.937.713a1 1 0 01-1.166-.8l-.358-1.958a.977.977 0 01.16-.742zm7.998-18.998l-2.828-1.245a1.981 1.981 0 00-1.872.144l-2.856 1.826-.678-3.852 2.142-1.2a1 1 0 10-.981-1.744l-2.141 1.2a2.024 2.024 0 00-1 2.126l.592 3.32-2.212-1.133a1.983 1.983 0 00-1.87.037l-2.315 1.295a1 1 0 10.976 1.746l2.3-1.3 2.339 1.192-3.549 1.992a2 2 0 00-.954 1.206l-1.137 3.974a1 1 0 101.923.551l1.148-3.985 4.229-2.365 1.1 2.47c.202.458.568.823 1.025 1.026l2.957 1.3a1 1 0 10.806-1.83L20.048 20.8l-1.193-2.689 3.382-2.171 2.829 1.246a1 1 0 00.807-1.83z"/><path d="M57 50h-.107a2.977 2.977 0 00.791-2.6l-.87-4.736.781-.142a2.987 2.987 0 002.355-3.492L57.4 24.92a2.987 2.987 0 00-3.051-2.488c-.281.013-.561.039-.842.054L43.593 1.722A3.015 3.015 0 0040.347.048L7.893 6.069A3.043 3.043 0 005.444 8.78L3.353 31.6c-.439.14-.883.263-1.321.406a3.007 3.007 0 00-1.982 3.4l2.01 11.112v.033c0 .012.009.021.012.033l.528 2.932c.033.174.081.344.143.51A2.993 2.993 0 000 53v4a3 3 0 003 3h54a3 3 0 003-3v-4a3 3 0 00-3-3zm-11.994-5.177l.861 4.717c.032.157.076.31.133.46H16.706zm10.711 2.938a1 1 0 01-.8 1.154l-5.9 1.069a1 1 0 01-1.175-.8l-.861-4.717 7.874-1.441zM7.436 8.959a1.02 1.02 0 01.827-.924l32.444-6.019a.992.992 0 011.081.566L42.8 4.7l-6.3 5.265a.988.988 0 01-.451.214L31.643 11a1 1 0 00.364 1.967l4.414-.819a3 3 0 001.37-.647l5.9-4.935 3.238 6.784-6.11 1.132a2.989 2.989 0 00-1.123.461L33.683 19a1 1 0 001.117 1.66l6.016-4.06a.96.96 0 01.368-.151l6.636-1.23 3.534 7.4a199.732 199.732 0 00-45.935 8.344zM2.65 33.9a197.79 197.79 0 0151.79-9.47 1 1 0 01.99.845l1.837 10.156-48.009 8.788a1 1 0 00.36 1.965L57.623 37.4l.359 1.985a.984.984 0 01-.747 1.169l-51.56 9.431A.922.922 0 015 49.834a1.039 1.039 0 01-.427-.674l-.36-1.99 1.464-.27a1 1 0 10-.364-1.966l-1.459.266-1.836-10.148A1 1 0 012.65 33.9zM58 57a1 1 0 01-1 1H3a1 1 0 01-1-1v-4a1 1 0 011-1h54a1 1 0 011 1z"/></svg>