<svg xmlns="http://www.w3.org/2000/svg" viewBox="0 0 512 512"><path d="M509.364 174.312c-3.188-3.635-79.854-88.979-253.365-88.979S5.822 170.676 2.635 174.312a10.657 10.657 0 00-2.26 9.823l64 234.667a10.655 10.655 0 006.885 7.281c3.323 1.156 7.073.521 9.896-1.615.531-.406 54.593-40.469 174.843-40.469 12.009 0 23.174.491 33.875 1.211l-12.936 20.122h-4.845c-5.896 0-10.667 4.771-10.667 10.667s4.771 10.667 10.667 10.667h42.667c5.896 0 10.667-4.771 10.667-10.667s-4.771-10.667-10.667-10.667h-12.464l11.534-17.941c79.85 9.641 116.577 36.742 117.013 37.077a10.769 10.769 0 006.49 2.177 10.32 10.32 0 003.406-.563 10.65 10.65 0 006.885-7.281l64-234.667a10.655 10.655 0 00-2.26-9.822zm-78.552 225.052c-16.956-9.348-51.085-24.154-104.255-31.77l58.026-90.262h19.381l-20.402 74.823c-1.552 5.677 1.802 11.542 7.49 13.094.938.26 1.875.375 2.813.375 4.688 0 8.99-3.115 10.281-7.865l43.479-159.458c1.552-5.677-1.802-11.542-7.49-13.094-5.615-1.563-11.542 1.792-13.094 7.49l-17.261 63.302h-31.021c-3.625 0-7.01 1.844-8.969 4.896l-66.887 104.046c-14.553-1.319-29.885-2.275-46.905-2.275-95.229 0-151.271 23.719-174.813 36.698L22.562 184.426c17-16.313 90.552-77.76 233.438-77.76 142.281 0 216.313 61.479 233.427 77.792l-58.615 214.906z"/><path d="M100.77 171.791c-5.26-2.604-11.677-.5-14.313 4.771l-21.333 42.667c-2.635 5.271-.5 11.677 4.771 14.313a10.667 10.667 0 0014.312-4.771l21.333-42.667c2.636-5.272.501-11.678-4.77-14.313zm42.667 0c-5.26-2.604-11.677-.5-14.313 4.771l-42.667 85.333c-2.635 5.271-.5 11.677 4.771 14.313a10.667 10.667 0 0014.312-4.771l42.667-85.333c2.636-5.272.5-11.678-4.77-14.313z"/></svg>